# Blender 5.1.0
# www.blender.org
mtllib Tree1.mtl
o Tree1
v -0.222812 -1.000000 0.222812
v -0.151904 0.810445 0.151904
v -0.222812 -1.000000 -0.222812
v -0.151904 0.810445 -0.151904
v 0.222812 -1.000000 0.222812
v 0.151904 0.810445 0.151904
v 0.222812 -1.000000 -0.222812
v 0.151904 0.810445 -0.151904
v -0.672264 2.107462 -0.672264
v 0.672264 2.107462 -0.672264
v -0.672264 2.107462 0.672264
v 0.672264 2.107462 0.672264
v -0.493847 0.923399 0.493847
v -0.493847 0.923399 -0.493847
v 0.493847 0.923399 -0.493847
v 0.493847 0.923399 0.493847
v -0.057002 4.375656 0.057002
v -0.057002 4.375656 -0.057002
v 0.057002 4.375656 -0.057002
v 0.057002 4.375656 0.057002
v -1.128441 1.000000 1.128441
v -1.128441 1.000000 -1.128441
v 1.128441 1.000000 -1.128441
v 1.128441 1.000000 1.128441
v -0.884082 1.485008 0.884082
v -0.884082 1.485008 -0.884082
v 0.884082 1.485008 -0.884082
v 0.884082 1.485008 0.884082
v -0.181150 -0.727251 0.181150
v -0.151904 0.727251 0.151904
v -0.151904 0.727251 -0.151904
v -0.181150 -0.727251 -0.181150
v 0.151904 0.727251 -0.151904
v 0.181150 -0.727251 -0.181150
v 0.151904 0.727251 0.151904
v 0.181150 -0.727251 0.181150
v 0.298276 3.451996 -0.298276
v -0.298276 3.451996 0.298276
v 0.298276 3.451996 0.298276
v -0.298276 3.451996 -0.298276
v 0.000000 4.600993 0.000000
vn -1.0000 -0.0000 -0.0000
vn -0.0000 -0.0000 -1.0000
vn 1.0000 -0.0000 -0.0000
vn -0.0000 -0.0000 1.0000
vn -0.0000 -1.0000 -0.0000
vn -0.0000 -0.9495 0.3137
vn -0.0000 0.2452 0.9695
vn -0.3137 -0.9495 -0.0000
vn -0.0000 0.2680 -0.9634
vn -0.0000 0.2680 0.9634
vn -0.0000 -0.9928 0.1198
vn -0.0000 0.3222 -0.9467
vn -0.0000 0.3222 0.9467
vn -0.1198 -0.9928 -0.0000
vn -0.0000 -0.9495 -0.3137
vn 0.9634 0.2680 -0.0000
vn -0.9634 0.2680 -0.0000
vn 0.3137 -0.9495 -0.0000
vn -0.8931 0.4499 -0.0000
vn -0.0000 0.4499 0.8931
vn -0.0000 0.4499 -0.8931
vn 0.8931 0.4499 -0.0000
vn -0.0000 -0.9928 -0.1198
vn 0.9467 0.3222 -0.0000
vn -0.9467 0.3222 -0.0000
vn 0.1198 -0.9928 -0.0000
vn -0.0000 0.1510 0.9885
vn -0.0000 0.0201 0.9998
vn 0.9885 0.1510 -0.0000
vn 0.9998 0.0201 -0.0000
vn -0.0000 0.1510 -0.9885
vn -0.0000 0.0201 -0.9998
vn -0.9885 0.1510 -0.0000
vn -0.9998 0.0201 -0.0000
vn -0.9675 0.2527 -0.0000
vn 0.9675 0.2527 -0.0000
vn -0.0000 0.2527 0.9675
vn -0.0000 0.2527 -0.9675
vn -0.0000 0.2452 -0.9695
vn 0.9695 0.2452 -0.0000
vn -0.9695 0.2452 -0.0000
vt 0.541667 0.000000
vt 0.625000 0.000000
vt 0.625000 0.250000
vt 0.541667 0.250000
vt 0.625000 0.500000
vt 0.541667 0.500000
vt 0.625000 0.750000
vt 0.541667 0.750000
vt 0.625000 1.000000
vt 0.541667 1.000000
vt 0.125000 0.500000
vt 0.375000 0.500000
vt 0.375000 0.750000
vt 0.125000 0.750000
vt 0.875000 0.750000
vt 0.875000 0.500000
vt 0.625000 0.007655
vt 0.625000 0.250000
vt 0.625000 0.992345
vt 0.458333 0.750000
vt 0.458333 1.000000
vt 0.375000 1.000000
vt 0.458333 0.500000
vt 0.375000 0.250000
vt 0.458333 0.250000
vt 0.375000 0.000000
vt 0.458333 0.000000
s 0
usemtl Wood
f 30/1/1 2/2/1 4/3/1 31/4/1
f 31/4/2 4/3/2 8/5/2 33/6/2
f 33/6/3 8/5/3 6/7/3 35/8/3
f 35/8/4 6/7/4 2/9/4 30/10/4
f 3/11/5 7/12/5 5/13/5 1/14/5
f 5/13/27 36/20/27 29/21/27 1/22/27
f 36/20/28 35/8/28 30/10/28 29/21/28
f 7/12/29 34/23/29 36/20/29 5/13/29
f 34/23/30 33/6/30 35/8/30 36/20/30
f 3/24/31 32/25/31 34/23/31 7/12/31
f 32/25/32 31/4/32 33/6/32 34/23/32
f 1/26/33 29/27/33 32/25/33 3/24/33
f 29/27/34 30/1/34 31/4/34 32/25/34
usemtl Leaf
f 2/9/6 6/7/6 16/7/6 13/9/6
f 17/15/7 20/7/7 41/15/7
f 4/3/8 2/2/8 13/2/8 14/3/8
f 40/16/9 37/5/9 10/5/9 9/16/9
f 39/7/10 38/15/10 11/15/10 12/7/10
f 13/9/11 16/7/11 24/7/11 21/9/11
f 9/16/12 10/5/12 27/5/12 26/16/12
f 12/7/13 11/15/13 25/15/13 28/7/13
f 14/3/14 13/2/14 21/2/14 22/3/14
f 8/5/15 4/3/15 14/3/15 15/5/15
f 37/5/16 39/7/16 12/7/16 10/5/16
f 38/15/17 40/16/17 9/16/17 11/15/17
f 6/7/18 8/5/18 15/5/18 16/7/18
f 22/3/19 21/2/19 25/17/19 26/18/19
f 21/9/20 24/7/20 28/7/20 25/19/20
f 23/5/21 22/3/21 26/18/21 27/5/21
f 24/7/22 23/5/22 27/5/22 28/7/22
f 15/5/23 14/3/23 22/3/23 23/5/23
f 10/5/24 12/7/24 28/7/24 27/5/24
f 11/15/25 9/16/25 26/16/25 25/15/25
f 16/7/26 15/5/26 23/5/26 24/7/26
f 17/15/35 18/16/35 40/16/35 38/15/35
f 19/5/36 20/7/36 39/7/36 37/5/36
f 20/7/37 17/15/37 38/15/37 39/7/37
f 18/16/38 19/5/38 37/5/38 40/16/38
f 19/5/39 18/16/39 41/5/39
f 20/7/40 19/5/40 41/7/40
f 18/16/41 17/15/41 41/16/41
