# Blender 5.1.0
# www.blender.org
mtllib Tree2.mtl
o Tree2
v 0.203178 1.000000 -0.203178
v 0.230989 -1.000000 -0.258800
v 0.203178 1.000000 0.203178
v 0.230989 -1.000000 0.230989
v -0.203178 1.000000 -0.203178
v -0.203178 -1.000000 -0.203178
v -0.203178 1.000000 0.203178
v -0.258800 -1.000000 0.230989
v 0.154265 2.780470 0.154265
v -0.154265 2.780470 0.154265
v 0.154265 2.780470 -0.154265
v -0.154265 2.780470 -0.154265
v -0.203178 1.383597 -0.203178
v 0.203178 1.383597 -0.203178
v 0.203178 1.383597 0.203178
v -0.203178 1.383597 0.203178
v -0.181756 1.941849 1.498931
v -0.337818 1.941849 1.498931
v -0.337818 2.127669 1.400361
v -0.181756 2.127669 1.400361
v 0.000000 4.920625 0.000000
v 0.000000 4.492910 -1.032594
v 0.000000 4.019152 -1.349149
v 0.000000 3.460317 -1.460308
v 0.000000 2.901481 -1.349149
v 0.000000 2.427723 -1.032594
v 0.000000 2.000009 0.000000
v 0.395157 4.809465 -0.395157
v 0.730154 4.492910 -0.730154
v 0.953992 4.019152 -0.953992
v 1.032594 3.460317 -1.032594
v 0.953992 2.901481 -0.953992
v 0.730154 2.427723 -0.730154
v 0.395157 2.111168 -0.395157
v 0.558836 4.809465 0.000000
v 1.032594 4.492910 0.000000
v 1.349149 4.019152 0.000000
v 1.460308 3.460317 0.000000
v 1.349149 2.901481 0.000000
v 1.032594 2.427723 0.000000
v 0.558836 2.111168 0.000000
v 0.395157 4.809465 0.395157
v 0.730154 4.492910 0.730154
v 0.953992 4.019152 0.953992
v 1.032594 3.460317 1.032594
v 0.953992 2.901481 0.953992
v 0.730154 2.427723 0.730154
v 0.395157 2.111168 0.395157
v 0.000000 4.809465 0.558836
v 0.000000 4.492910 1.032594
v 0.000000 4.019152 1.349148
v 0.000000 3.460317 1.460308
v 0.000000 2.901481 1.349148
v 0.000000 2.427723 1.032594
v 0.000000 2.111168 0.558836
v -0.395157 4.809465 0.395157
v -0.730154 4.492910 0.730154
v -0.953992 4.019152 0.953992
v -1.032594 3.460317 1.032594
v -0.953992 2.901481 0.953992
v -0.730154 2.427723 0.730154
v -0.395157 2.111168 0.395157
v -0.558836 4.809465 0.000000
v -1.032594 4.492910 0.000000
v -1.349148 4.019152 0.000000
v -1.460308 3.460317 0.000000
v -1.349148 2.901481 0.000000
v -1.032594 2.427723 0.000000
v -0.558836 2.111168 0.000000
v -0.395157 4.809465 -0.395157
v -0.730154 4.492910 -0.730154
v -0.953992 4.019152 -0.953992
v -1.032594 3.460317 -1.032594
v -0.953992 2.901481 -0.953992
v -0.730154 2.427723 -0.730154
v -0.395157 2.111168 -0.395157
v 0.000000 4.809465 -0.558836
v 0.000000 2.111168 -0.558836
v 0.000000 3.059385 1.549594
v 0.000000 2.854941 1.056024
v 0.000000 2.628490 0.904714
v 0.000000 2.361372 0.851581
v 0.000000 2.094254 0.904714
v 0.000000 1.867802 1.056024
v 0.000000 1.663359 1.549594
v 0.188881 3.006252 1.360713
v 0.349006 2.854941 1.200587
v 0.455999 2.628490 1.093595
v 0.493570 2.361372 1.056024
v 0.455999 2.094254 1.093595
v 0.349006 1.867802 1.200587
v 0.188881 1.716492 1.360713
v 0.267118 3.006252 1.549594
v 0.493570 2.854941 1.549594
v 0.644880 2.628490 1.549594
v 0.698013 2.361372 1.549594
v 0.644880 2.094254 1.549594
v 0.493570 1.867802 1.549594
v 0.267118 1.716492 1.549594
v 0.188881 3.006252 1.738475
v 0.349006 2.854941 1.898600
v 0.455999 2.628490 2.005593
v 0.493570 2.361372 2.043163
v 0.455999 2.094254 2.005593
v 0.349006 1.867802 1.898600
v 0.188881 1.716492 1.738475
v 0.000000 3.006252 1.816712
v 0.000000 2.854941 2.043163
v 0.000000 2.628490 2.194474
v 0.000000 2.361372 2.247607
v 0.000000 2.094254 2.194474
v 0.000000 1.867802 2.043163
v 0.000000 1.716492 1.816712
v -0.188881 3.006252 1.738475
v -0.349006 2.854941 1.898600
v -0.455999 2.628490 2.005593
v -0.493570 2.361372 2.043163
v -0.455999 2.094254 2.005593
v -0.349006 1.867802 1.898600
v -0.188881 1.716492 1.738475
v -0.267118 3.006252 1.549594
v -0.493570 2.854941 1.549594
v -0.644880 2.628490 1.549594
v -0.698013 2.361372 1.549594
v -0.644880 2.094254 1.549594
v -0.493570 1.867802 1.549594
v -0.267118 1.716492 1.549594
v -0.188881 3.006252 1.360713
v -0.349006 2.854941 1.200587
v -0.455999 2.628490 1.093595
v -0.493570 2.361372 1.056024
v -0.455999 2.094254 1.093595
v -0.349006 1.867802 1.200587
v -0.188881 1.716492 1.360713
v 0.000000 3.006252 1.282476
v 0.000000 1.716492 1.282476
vn -0.0000 0.0350 -0.9994
vn -0.0000 0.0139 0.9999
vn -0.9977 0.0134 -0.0660
vn -0.0000 -1.0000 -0.0000
vn 0.9999 0.0139 -0.0000
vn -0.0660 0.0134 -0.9977
vn -0.0000 1.0000 -0.0000
vn -0.0000 0.0350 0.9994
vn -0.9994 0.0350 -0.0000
vn 0.9994 0.0350 -0.0000
vn 1.0000 -0.0000 -0.0000
vn -1.0000 -0.0000 -0.0000
vn -0.9952 -0.0167 -0.0962
vn -0.0000 -0.0000 -1.0000
vn -0.0000 0.4686 0.8834
vn -0.0000 -0.8089 0.5880
vn -0.0000 0.8493 -0.5279
vn 0.9628 0.0461 0.2662
vn -0.0000 -0.9063 -0.4226
vn -0.0000 -0.6839 -0.7296
vn 0.5159 -0.6839 -0.5159
vn 0.2988 -0.9063 -0.2988
vn -0.0000 -0.3668 -0.9303
vn 0.7071 -0.0000 -0.7071
vn 0.6578 -0.3668 -0.6578
vn -0.0000 0.3668 -0.9303
vn -0.0000 0.6839 -0.7296
vn 0.5159 0.6839 -0.5159
vn 0.6578 0.3668 -0.6578
vn -0.0000 0.9063 -0.4226
vn 0.2988 0.9063 -0.2988
vn 0.4226 -0.9063 -0.0000
vn 0.9303 -0.3668 -0.0000
vn 0.7296 -0.6839 -0.0000
vn 0.9303 0.3668 -0.0000
vn 0.4226 0.9063 -0.0000
vn 0.7296 0.6839 -0.0000
vn 0.6578 0.3668 0.6578
vn 0.7071 -0.0000 0.7071
vn 0.2988 0.9063 0.2988
vn 0.5159 0.6839 0.5159
vn 0.5159 -0.6839 0.5159
vn 0.2988 -0.9063 0.2988
vn 0.6578 -0.3668 0.6578
vn -0.0000 -0.6839 0.7296
vn -0.0000 -0.9063 0.4226
vn -0.0000 -0.0000 1.0000
vn -0.0000 -0.3668 0.9303
vn -0.0000 0.6839 0.7296
vn -0.0000 0.3668 0.9303
vn -0.0000 0.9063 0.4226
vn -0.5159 0.6839 0.5159
vn -0.6578 0.3668 0.6578
vn -0.2988 0.9063 0.2988
vn -0.2988 -0.9063 0.2988
vn -0.6578 -0.3668 0.6578
vn -0.5159 -0.6839 0.5159
vn -0.7071 -0.0000 0.7071
vn -0.4226 -0.9063 -0.0000
vn -0.9303 -0.3668 -0.0000
vn -0.7296 -0.6839 -0.0000
vn -0.9303 0.3668 -0.0000
vn -0.4226 0.9063 -0.0000
vn -0.7296 0.6839 -0.0000
vn -0.2988 0.9063 -0.2988
vn -0.5159 0.6839 -0.5159
vn -0.5159 -0.6839 -0.5159
vn -0.2988 -0.9063 -0.2988
vn -0.7071 -0.0000 -0.7071
vn -0.6578 -0.3668 -0.6578
vn -0.6578 0.3668 -0.6578
vt 0.625000 0.500000
vt 0.625000 0.250000
vt 0.375000 0.750000
vt 0.625000 0.750000
vt 0.625000 1.000000
vt 0.375000 1.000000
vt 0.375000 0.000000
vt 0.625000 0.000000
vt 0.375000 0.250000
vt 0.125000 0.500000
vt 0.375000 0.500000
vt 0.125000 0.750000
vt 0.875000 0.500000
vt 0.875000 0.750000
vt 0.750000 0.125000
vt 0.750000 0.250000
vt 0.625000 0.125000
vt 0.750000 0.375000
vt 0.750000 0.500000
vt 0.625000 0.375000
vt 0.750000 0.625000
vt 0.750000 0.750000
vt 0.625000 0.750000
vt 0.625000 0.625000
vt 0.750000 0.875000
vt 0.687500 1.000000
vt 0.625000 0.875000
vt 0.687500 0.000000
vt 0.562500 0.000000
vt 0.500000 0.125000
vt 0.500000 0.375000
vt 0.500000 0.250000
vt 0.500000 0.625000
vt 0.500000 0.500000
vt 0.500000 0.875000
vt 0.500000 0.750000
vt 0.562500 1.000000
vt 0.375000 0.625000
vt 0.375000 0.875000
vt 0.375000 0.750000
vt 0.375000 0.125000
vt 0.375000 0.375000
vt 0.437500 1.000000
vt 0.437500 0.000000
vt 0.250000 0.250000
vt 0.250000 0.125000
vt 0.250000 0.500000
vt 0.250000 0.375000
vt 0.250000 0.750000
vt 0.250000 0.625000
vt 0.312500 1.000000
vt 0.250000 0.875000
vt 0.312500 0.000000
vt 0.125000 0.750000
vt 0.125000 0.625000
vt 0.187500 1.000000
vt 0.125000 0.875000
vt 0.187500 0.000000
vt 0.125000 0.125000
vt 0.125000 0.375000
vt 0.125000 0.250000
vt 0.062500 0.000000
vt 0.000000 0.125000
vt 0.000000 0.375000
vt 0.000000 0.250000
vt 0.000000 0.625000
vt 0.000000 0.500000
vt 0.000000 0.875000
vt 0.000000 0.750000
vt 0.062500 1.000000
vt 1.000000 0.750000
vt 1.000000 0.875000
vt 0.875000 0.875000
vt 0.875000 0.750000
vt 1.000000 0.125000
vt 1.000000 0.250000
vt 0.875000 0.250000
vt 0.875000 0.125000
vt 1.000000 0.375000
vt 1.000000 0.500000
vt 0.875000 0.375000
vt 1.000000 0.625000
vt 0.875000 0.625000
vt 0.937500 1.000000
vt 0.937500 0.000000
vt 0.812500 1.000000
vt 0.812500 0.000000
s 0
usemtl Wood
f 14/1/1 13/2/1 12/2/1 11/1/1
f 4/3/2 3/4/2 7/5/2 8/6/2
f 8/7/3 7/8/3 5/2/3 6/9/3
f 6/10/4 2/11/4 4/3/4 8/12/4
f 2/11/5 1/1/5 3/4/5 4/3/5
f 6/9/6 5/2/6 1/1/6 2/11/6
f 11/1/7 12/13/7 10/14/7 9/4/7
f 16/5/8 15/4/8 9/4/8 10/5/8
f 13/2/9 16/8/9 10/8/9 12/2/9
f 15/4/10 14/1/10 11/1/10 9/4/10
f 3/4/11 1/1/11 14/1/11 15/4/11
f 5/2/12 7/8/12 16/8/12 13/2/12
f 16/8/13 7/8/13 18/8/13 19/8/13
f 1/1/14 5/2/14 13/2/14 14/1/14
f 18/5/15 17/4/15 20/4/15 19/5/15
f 7/5/16 3/4/16 17/4/16 18/5/16
f 15/4/17 16/5/17 19/5/17 20/4/17
f 3/4/18 15/4/18 20/4/18 17/4/18
s 1
usemtl Leaf
f 78/15/19 26/16/20 33/2/21 34/17/22
f 25/18/23 24/19/14 31/1/24 32/20/25
f 23/21/26 22/22/27 29/23/28 30/24/29
f 77/25/30 21/26/7 28/27/31
f 27/28/4 78/15/19 34/17/22
f 26/16/20 25/18/23 32/20/25 33/2/21
f 24/19/14 23/21/26 30/24/29 31/1/24
f 22/22/27 77/25/30 28/27/31 29/23/28
f 27/29/4 34/17/22 41/30/32
f 33/2/21 32/20/25 39/31/33 40/32/34
f 31/1/24 30/24/29 37/33/35 38/34/11
f 29/23/28 28/27/31 35/35/36 36/36/37
f 34/17/22 33/2/21 40/32/34 41/30/32
f 32/20/25 31/1/24 38/34/11 39/31/33
f 30/24/29 29/23/28 36/36/37 37/33/35
f 28/27/31 21/37/7 35/35/36
f 38/34/11 37/33/35 44/38/38 45/11/39
f 36/36/37 35/35/36 42/39/40 43/40/41
f 41/30/32 40/32/34 47/9/42 48/41/43
f 39/31/33 38/34/11 45/11/39 46/42/44
f 37/33/35 36/36/37 43/40/41 44/38/38
f 35/35/36 21/43/7 42/39/40
f 27/44/4 41/30/32 48/41/43
f 40/32/34 39/31/33 46/42/44 47/9/42
f 48/41/43 47/9/42 54/45/45 55/46/46
f 46/42/44 45/11/39 52/47/47 53/48/48
f 44/38/38 43/40/41 50/49/49 51/50/50
f 42/39/40 21/51/7 49/52/51
f 27/53/4 48/41/43 55/46/46
f 47/9/42 46/42/44 53/48/48 54/45/45
f 45/11/39 44/38/38 51/50/50 52/47/47
f 43/40/41 42/39/40 49/52/51 50/49/49
f 51/50/50 50/49/49 57/54/52 58/55/53
f 49/52/51 21/56/7 56/57/54
f 27/58/4 55/46/46 62/59/55
f 54/45/45 53/48/48 60/60/56 61/61/57
f 52/47/47 51/50/50 58/55/53 59/10/58
f 50/49/49 49/52/51 56/57/54 57/54/52
f 55/46/46 54/45/45 61/61/57 62/59/55
f 53/48/48 52/47/47 59/10/58 60/60/56
f 27/62/4 62/59/55 69/63/59
f 61/61/57 60/60/56 67/64/60 68/65/61
f 59/10/58 58/55/53 65/66/62 66/67/12
f 57/54/52 56/57/54 63/68/63 64/69/64
f 62/59/55 61/61/57 68/65/61 69/63/59
f 60/60/56 59/10/58 66/67/12 67/64/60
f 58/55/53 57/54/52 64/69/64 65/66/62
f 56/57/54 21/70/7 63/68/63
f 64/71/64 63/72/63 70/73/65 71/74/66
f 69/75/59 68/76/61 75/77/67 76/78/68
f 67/79/60 66/80/12 73/13/69 74/81/70
f 65/82/62 64/71/64 71/74/66 72/83/71
f 63/72/63 21/84/7 70/73/65
f 27/85/4 69/75/59 76/78/68
f 68/76/61 67/79/60 74/81/70 75/77/67
f 66/80/12 65/82/62 72/83/71 73/13/69
f 76/78/68 75/77/67 26/16/20 78/15/19
f 74/81/70 73/13/69 24/19/14 25/18/23
f 72/83/71 71/74/66 22/22/27 23/21/26
f 70/73/65 21/86/7 77/25/30
f 27/87/4 76/78/68 78/15/19
f 75/77/67 74/81/70 25/18/23 26/16/20
f 73/13/69 72/83/71 23/21/26 24/19/14
f 71/74/66 70/73/65 77/25/30 22/22/27
f 136/15/19 84/16/20 91/2/21 92/17/22
f 83/18/23 82/19/14 89/1/24 90/20/25
f 81/21/26 80/22/27 87/23/28 88/24/29
f 135/25/30 79/26/7 86/27/31
f 85/28/4 136/15/19 92/17/22
f 84/16/20 83/18/23 90/20/25 91/2/21
f 82/19/14 81/21/26 88/24/29 89/1/24
f 80/22/27 135/25/30 86/27/31 87/23/28
f 85/29/4 92/17/22 99/30/32
f 91/2/21 90/20/25 97/31/33 98/32/34
f 89/1/24 88/24/29 95/33/35 96/34/11
f 87/23/28 86/27/31 93/35/36 94/36/37
f 92/17/22 91/2/21 98/32/34 99/30/32
f 90/20/25 89/1/24 96/34/11 97/31/33
f 88/24/29 87/23/28 94/36/37 95/33/35
f 86/27/31 79/37/7 93/35/36
f 96/34/11 95/33/35 102/38/38 103/11/39
f 94/36/37 93/35/36 100/39/40 101/40/41
f 99/30/32 98/32/34 105/9/42 106/41/43
f 97/31/33 96/34/11 103/11/39 104/42/44
f 95/33/35 94/36/37 101/40/41 102/38/38
f 93/35/36 79/43/7 100/39/40
f 85/44/4 99/30/32 106/41/43
f 98/32/34 97/31/33 104/42/44 105/9/42
f 106/41/43 105/9/42 112/45/45 113/46/46
f 104/42/44 103/11/39 110/47/47 111/48/48
f 102/38/38 101/40/41 108/49/49 109/50/50
f 100/39/40 79/51/7 107/52/51
f 85/53/4 106/41/43 113/46/46
f 105/9/42 104/42/44 111/48/48 112/45/45
f 103/11/39 102/38/38 109/50/50 110/47/47
f 101/40/41 100/39/40 107/52/51 108/49/49
f 109/50/50 108/49/49 115/54/52 116/55/53
f 107/52/51 79/56/7 114/57/54
f 85/58/4 113/46/46 120/59/55
f 112/45/45 111/48/48 118/60/56 119/61/57
f 110/47/47 109/50/50 116/55/53 117/10/58
f 108/49/49 107/52/51 114/57/54 115/54/52
f 113/46/46 112/45/45 119/61/57 120/59/55
f 111/48/48 110/47/47 117/10/58 118/60/56
f 85/62/4 120/59/55 127/63/59
f 119/61/57 118/60/56 125/64/60 126/65/61
f 117/10/58 116/55/53 123/66/62 124/67/12
f 115/54/52 114/57/54 121/68/63 122/69/64
f 120/59/55 119/61/57 126/65/61 127/63/59
f 118/60/56 117/10/58 124/67/12 125/64/60
f 116/55/53 115/54/52 122/69/64 123/66/62
f 114/57/54 79/70/7 121/68/63
f 122/71/64 121/72/63 128/73/65 129/74/66
f 127/75/59 126/76/61 133/77/67 134/78/68
f 125/79/60 124/80/12 131/13/69 132/81/70
f 123/82/62 122/71/64 129/74/66 130/83/71
f 121/72/63 79/84/7 128/73/65
f 85/85/4 127/75/59 134/78/68
f 126/76/61 125/79/60 132/81/70 133/77/67
f 124/80/12 123/82/62 130/83/71 131/13/69
f 134/78/68 133/77/67 84/16/20 136/15/19
f 132/81/70 131/13/69 82/19/14 83/18/23
f 130/83/71 129/74/66 80/22/27 81/21/26
f 128/73/65 79/86/7 135/25/30
f 85/87/4 134/78/68 136/15/19
f 133/77/67 132/81/70 83/18/23 84/16/20
f 131/13/69 130/83/71 81/21/26 82/19/14
f 129/74/66 128/73/65 135/25/30 80/22/27
